HIERARCHY
ROOT Hips
{
	OFFSET 0.000000 0.000000 0.000000 
	CHANNELS 6 Xposition Yposition Zposition Zrotation Yrotation Xrotation
	JOINT LeftUpLeg
	{
		OFFSET 1.363060 -1.794630 0.839290 
		CHANNELS 3 Zrotation Yrotation Xrotation
		JOINT LeftLeg
		{
			OFFSET 2.448110 -6.726130 0.000000 
			CHANNELS 3 Zrotation Yrotation Xrotation
			JOINT LeftFoot
			{
				OFFSET 2.562200 -7.039590 0.000000 
				CHANNELS 3 Zrotation Yrotation Xrotation
				JOINT LeftToeBase
				{
					OFFSET 0.157640 -0.433110 2.322550 
					CHANNELS 3 Zrotation Yrotation Xrotation
					End Site
					{
						OFFSET 0.000000 0.000000 0.000000 
					}
				}
			}
		}
	}
	JOINT RightUpLeg
	{
		OFFSET -1.305520 -1.794630 0.839290 
		CHANNELS 3 Zrotation Yrotation Xrotation
		JOINT RightLeg
		{
			OFFSET -2.542530 -6.985550 0.000000 
			CHANNELS 3 Zrotation Yrotation Xrotation
			JOINT RightFoot
			{
				OFFSET -2.568260 -7.056230 0.000000 
				CHANNELS 3 Zrotation Yrotation Xrotation
				JOINT RightToeBase
				{
					OFFSET -0.164730 -0.452590 2.363150 
					CHANNELS 3 Zrotation Yrotation Xrotation
					End Site
					{
						OFFSET 0.000000 0.000000 0.000000 
					}
				}
			}
		}
	}
	JOINT Spine
	{
		OFFSET 0.028270 2.035590 -0.193380 
		CHANNELS 3 Zrotation Yrotation Xrotation
		JOINT Spine1
		{
			OFFSET 0.056720 2.048850 -0.042750 
			CHANNELS 3 Zrotation Yrotation Xrotation
			JOINT Neck1
			{
				OFFSET -0.054170 1.746240 0.172020 
				CHANNELS 3 Zrotation Yrotation Xrotation
				JOINT Head
				{
					OFFSET 0.104070 1.761360 -0.123970 
					CHANNELS 3 Zrotation Yrotation Xrotation
					End Site
					{
						OFFSET 0.000000 0.000000 0.000000 
					}
				}
			}
			JOINT LeftArm
			{
				OFFSET 3.362410 1.200890 -0.311210 
				CHANNELS 3 Zrotation Yrotation Xrotation
				JOINT LeftForeArm
				{
					OFFSET 4.983000 -0.000000 -0.000000 
					CHANNELS 3 Zrotation Yrotation Xrotation
					JOINT LeftHand
					{
						OFFSET 3.483560 -0.000000 -0.000000 
						CHANNELS 3 Zrotation Yrotation Xrotation
						JOINT LeftHandIndex1
						{
							OFFSET 0.715260 -0.000000 -0.000000 
							CHANNELS 3 Zrotation Yrotation Xrotation
							End Site
							{
								OFFSET 0.000000 0.000000 0.000000 
							}
						}
					}
				}
			}
			JOINT RightArm
			{
				OFFSET -3.136600 1.374050 -0.404650 
				CHANNELS 3 Zrotation Yrotation Xrotation
				JOINT RightForeArm
				{
					OFFSET -5.241900 -0.000000 -0.000000 
					CHANNELS 3 Zrotation Yrotation Xrotation
					JOINT RightHand
					{
						OFFSET -3.444170 -0.000000 -0.000000 
						CHANNELS 3 Zrotation Yrotation Xrotation
						JOINT RightHandIndex1
						{
							OFFSET -0.622530 -0.000000 -0.000000 
							CHANNELS 3 Zrotation Yrotation Xrotation
							End Site
							{
								OFFSET 0.000000 0.000000 0.000000 
							}
						}
					}
				}
			}
		}
	}
}
MOTION
Frames: 13
Frame Time: 0.041667
4.920896 16.225976 14.872190 -169.166598 -25.788983 -152.564843 2.490873 -46.843441 -34.702878 6.234633 15.431710 54.619644 7.280327 -13.624424 -70.991147 5.776700 -14.208400 -44.078900 9.347808 42.956957 -58.957489 -7.615619 -7.748283 15.946412 -9.978951 -32.272707 -56.074233 -5.160500 -13.562300 41.511500 -17.503963 -8.896304 17.417123 9.503184 -7.264997 12.662392 27.514387 -21.048224 46.329060 1.959300 -5.372900 8.032900 -63.030686 13.931342 24.632912 52.088078 -48.467228 -16.987776 0.141840 1.549532 -12.055159 -7.125000 0.000000 0.000000 98.015455 -33.532298 -18.792390 -60.972760 56.462410 -26.302474 1.059917 -3.003942 -15.118186 7.125000 0.000000 0.000000 
5.037775 16.126054 14.776292 -170.565007 -26.100748 -151.887642 2.602178 -46.898905 -35.308950 6.373146 15.416152 54.418057 7.449302 -12.807811 -71.010788 6.503800 -14.899400 -46.971500 8.293916 41.723712 -60.305050 -7.203267 -8.378642 18.251231 -9.825307 -33.373038 -53.012600 -4.739900 -13.084700 39.686400 -18.200486 -8.634959 18.385430 9.601626 -7.202693 12.310013 27.463362 -21.078937 46.407976 1.912200 -5.338800 8.150600 -62.895723 13.151937 24.642279 51.407876 -48.211960 -16.572850 0.131932 1.542515 -11.859994 -7.125000 0.000000 0.000000 98.819759 -33.425035 -18.517763 -59.202339 56.114620 -25.204014 0.956827 -3.051679 -13.464453 7.125000 0.000000 0.000000 
5.153313 16.022970 14.682118 -172.054165 -26.354552 -150.784388 3.058741 -46.914397 -36.258572 6.200806 15.373552 54.321281 7.250230 -13.711177 -70.903894 6.443100 -14.844400 -46.735000 7.638219 40.574218 -61.297419 -6.859634 -8.970390 20.333936 -9.819388 -34.077721 -50.123591 -4.447600 -12.733400 38.378400 -20.499593 -8.819341 15.643672 10.259906 -7.308703 13.010626 27.338114 -20.965888 46.082008 1.924100 -5.388900 7.898000 -62.961328 13.337871 25.064199 50.917250 -47.736009 -16.186087 0.124663 1.527010 -11.533362 -7.125000 0.000000 0.000000 99.633602 -34.127092 -18.194551 -57.843840 55.566170 -24.284696 0.865017 -3.111539 -12.071483 7.125000 0.000000 0.000000 
5.271725 15.916629 14.580759 -173.297287 -26.629775 -150.028379 3.667763 -46.867877 -37.109437 5.973387 15.295920 54.296630 7.023721 -14.946506 -70.847389 6.291800 -14.705300 -46.141900 7.435298 39.387194 -62.082539 -6.573681 -9.714410 22.806323 -9.971163 -34.311647 -47.092643 -4.218300 -12.445300 37.326100 -21.354924 -9.011802 14.199671 10.439372 -7.331439 13.139114 27.199228 -20.963011 46.304585 1.954000 -5.421300 7.853800 -63.167506 13.406486 25.293022 50.298850 -47.226969 -15.738935 0.128676 1.474147 -11.102872 -7.125000 0.000000 0.000000 100.161874 -34.573263 -17.653596 -56.591815 55.054632 -23.424281 0.803445 -3.149543 -11.013417 7.125000 0.000000 0.000000 
5.390233 15.804828 14.479209 -174.700178 -26.862858 -149.375563 4.096644 -46.791622 -37.856739 5.855514 15.244840 54.346181 6.892180 -15.729416 -70.797549 6.339000 -14.749000 -46.327500 6.998601 37.474787 -63.568975 -6.604593 -10.926435 26.335753 -10.313451 -32.458043 -45.143994 -3.424500 -11.352400 33.477900 -21.540241 -8.896551 14.665904 10.387041 -7.250639 12.744315 26.777295 -21.037712 47.072868 1.894500 -5.437600 8.055200 -63.274537 13.127944 25.385395 49.651443 -46.849992 -15.344482 0.150726 1.419897 -10.996768 -7.125000 0.000000 0.000000 100.592134 -34.607002 -16.931386 -55.406577 54.676227 -22.672260 0.762023 -3.169109 -10.034483 7.125000 0.000000 0.000000 
5.506920 15.691302 14.382065 -176.135373 -27.054094 -148.730031 4.558372 -46.654473 -38.693155 5.823576 15.223783 54.526706 6.796110 -16.244185 -70.667001 6.409100 -14.813400 -46.602300 6.604339 34.841601 -65.518667 -7.364812 -12.550815 30.423002 -9.989650 -26.530124 -48.019511 -2.106800 -9.085000 26.061700 -20.716979 -8.763033 16.424724 10.028749 -7.170288 12.052634 26.448844 -21.096674 47.875976 1.861100 -5.404100 8.371500 -63.528300 12.821432 25.011878 49.066733 -46.560309 -14.988725 0.182691 1.370881 -11.042598 -7.125000 0.000000 0.000000 100.580830 -34.254810 -15.629969 -54.215533 54.254771 -21.914874 0.721478 -3.201793 -9.091012 7.125000 0.000000 0.000000 
5.620254 15.577680 14.292106 -177.634539 -27.261186 -148.309735 4.955327 -46.599013 -39.524238 5.969429 15.222962 54.781049 6.900082 -15.968575 -70.592271 6.678000 -15.054700 -47.645800 5.950999 31.592251 -67.624922 -7.633023 -14.414754 35.212825 -9.361064 -23.721951 -49.504895 -0.349700 -3.799500 10.513400 -19.308123 -8.390893 20.064964 9.383029 -7.009035 10.841713 25.656755 -20.722959 47.603211 1.665700 -5.254800 8.568400 -63.839600 11.884049 24.128126 48.266612 -46.299107 -14.528806 0.214719 1.305825 -10.976576 -7.125000 0.000000 0.000000 100.453438 -33.131496 -14.148854 -52.496812 53.741300 -20.858203 0.692686 -3.238073 -8.239054 7.125000 0.000000 0.000000 
5.732439 15.464250 14.213357 -179.499951 -27.379536 -147.137420 5.378713 -46.539087 -40.706320 6.104358 15.306502 55.088805 6.983725 -15.712958 -70.503511 6.840800 -15.196400 -48.269700 4.240371 29.029447 -69.408944 -7.403933 -15.788601 38.679663 -9.253555 -22.711263 -46.864274 -2.510900 9.857700 -28.517200 -21.494029 -8.369367 18.488115 9.891385 -7.056541 11.143996 24.909659 -20.469059 47.297340 1.502100 -5.289600 8.367600 -64.119738 11.940478 24.098440 47.756319 -45.882904 -14.186484 0.241785 1.275870 -10.821673 -7.125000 0.000000 0.000000 100.780858 -33.099490 -13.077470 -51.094405 53.049221 -19.935111 0.686424 -3.286627 -7.628798 7.125000 0.000000 0.000000 
5.847498 15.354365 14.147923 178.884444 -27.502051 -145.848685 6.215487 -46.404851 -42.326447 6.200174 15.395142 55.549689 6.980936 -15.833558 -70.294603 6.864100 -15.216400 -48.358400 2.222757 27.139935 -71.129608 -7.411765 -16.522697 40.041492 -8.858188 -21.691471 -49.530258 -2.125100 9.122000 -26.177800 -23.089757 -8.493483 17.130011 10.140073 -7.098303 11.106434 24.586433 -20.542531 47.849171 1.434000 -5.341800 8.424800 -64.550531 11.857642 23.830983 47.132832 -45.446786 -13.788205 0.261160 1.242216 -10.602486 -7.125000 0.000000 0.000000 100.913584 -32.941706 -11.738830 -49.797574 52.366621 -19.080343 0.589355 -3.341659 -7.155386 7.125000 0.000000 0.000000 
5.955659 15.243425 14.082299 177.366306 -26.987275 -144.772256 5.943702 -46.145191 -42.651707 6.336748 15.538402 55.769586 7.087458 -15.282180 -70.308921 7.011600 -15.341700 -48.918200 0.219142 25.181609 -73.071055 -7.324439 -17.175104 41.228017 -8.376528 -19.480998 -52.609123 -0.897400 6.037700 -16.894000 -24.563473 -8.305461 16.137033 10.218570 -6.979445 11.048168 24.721773 -20.607378 47.804951 1.474100 -5.358500 8.430100 -65.085646 11.729685 23.372289 46.461378 -45.011082 -13.384513 0.293598 1.211050 -10.765469 -7.125000 0.000000 0.000000 100.869642 -32.375894 -10.260289 -48.254485 51.535117 -18.063434 0.490491 -3.397414 -6.591051 7.125000 0.000000 0.000000 
6.059605 15.139863 14.019356 175.578867 -26.260926 -144.172263 4.213443 -46.333685 -41.483558 6.537468 15.680959 55.730690 7.211073 -14.306703 -70.358469 7.216700 -15.511700 -49.689300 -2.088509 22.845695 -74.642649 -7.036927 -18.045383 42.817267 -8.136829 -18.322429 -52.588421 -1.478300 7.682500 -21.753700 -26.114677 -7.854732 15.993648 10.513765 -6.795943 10.678586 24.479955 -20.414811 47.226158 1.437700 -5.355100 8.318300 -65.736128 11.557593 22.807555 45.800268 -44.638090 -13.034542 0.343808 1.176607 -11.301327 -7.125000 0.000000 0.000000 100.742200 -31.541848 -8.728618 -46.610168 50.681887 -17.019321 0.472791 -3.443442 -5.949494 7.125000 0.000000 0.000000 
6.161826 15.046551 13.967240 173.601495 -25.467089 -143.706262 2.149407 -46.439287 -40.093713 6.677911 15.799983 55.614334 7.226798 -13.669965 -70.324837 7.529300 -15.761900 -50.848900 -5.109745 19.837436 -76.285319 -6.694714 -19.184490 44.985196 -7.771462 -16.446405 -53.452337 -1.747200 8.318300 -23.685000 -27.582255 -7.445915 15.979622 10.980589 -6.629887 10.057211 24.021694 -20.146844 46.685794 1.361500 -5.350900 8.196100 -66.566848 11.398133 22.163546 45.080927 -44.221738 -12.670383 0.406428 1.142426 -11.729509 -7.125000 0.000000 0.000000 100.418243 -30.681243 -6.986069 -45.177693 49.905109 -16.130356 0.427943 -3.506964 -5.563161 7.125000 0.000000 0.000000 
6.261556 14.962436 13.928823 171.769638 -24.530321 -143.266257 0.651658 -46.037192 -39.232855 6.749255 15.934238 55.683325 7.190735 -13.431171 -70.302072 7.847200 -16.005700 -52.010300 -8.059920 16.168842 -78.056292 -6.429241 -20.689780 48.059347 -7.326299 -14.152666 -53.013921 -2.000900 8.867900 -25.383000 -28.910790 -7.219040 15.361247 11.269172 -6.485192 9.534483 24.433027 -20.037331 45.752052 1.470100 -5.327500 8.002400 -67.455624 11.514439 21.494697 44.397237 -43.750543 -12.305775 0.469143 1.135733 -12.226370 -7.125000 0.000000 0.000000 99.928952 -29.720381 -5.118132 -43.828177 49.069789 -15.280805 0.343196 -3.582737 -4.963173 7.125000 0.000000 0.000000 
